<svg width="36" height="31" viewBox="0 0 36 31" fill="none" xmlns="http://www.w3.org/2000/svg">
<path d="M12.3096 0.345131C16.7002 -0.18976 21.1312 -0.00148346 25.5341 0.234361C26.1159 0.216731 26.6965 0.102634 27.2788 0.168165C27.7774 0.228373 28.2242 0.495154 28.6238 0.793868C29.4289 1.40693 30.1043 2.18532 30.6782 3.02691C31.3571 4.03681 31.5049 5.31749 32.1893 6.32573C33.0928 7.62271 34.5336 8.4011 35.3923 9.737C35.9722 10.6039 36.0703 11.7152 35.9606 12.7354C35.8655 13.6519 35.3997 14.4812 34.7988 15.1461C33.996 16.025 33.0744 16.8153 32.4751 17.8678C32.0803 18.5604 31.9284 19.3657 31.5413 20.0606C30.6198 21.482 29.2744 22.5438 27.87 23.42C25.8385 24.6787 23.6281 25.5788 21.5066 26.6553C20.5103 27.1526 19.5529 27.7334 18.5324 28.1788C17.5902 28.6012 16.559 28.711 15.5574 28.8983C14.6862 29.0353 13.8356 29.2788 12.976 29.4747C10.8678 29.9458 8.69702 30.3117 6.53623 30.0752C5.05957 29.9115 3.5584 29.3623 2.52139 28.2263C2.11852 27.758 1.74274 27.2377 1.53212 26.6466C1.40987 24.8517 1.64695 23.0607 1.87402 21.2854C2.08885 19.5763 2.21819 17.8219 1.85983 16.1231C1.51244 14.7775 0.688314 13.6329 0.273831 12.313C-0.0509814 11.3141 -0.123556 10.1884 0.258026 9.19545C0.875718 8.02554 2.10368 7.34429 2.66912 6.13579C2.99135 5.49279 3.0549 4.75632 3.03264 4.04446C4.0432 3.00196 5.30826 2.25783 6.63106 1.72128C8.44866 0.983807 10.3782 0.592951 12.3096 0.345131Z" fill="#0D0D0D"/>
<path d="M10.2131 1.95913C14.6708 1.31902 19.1873 1.04408 23.6894 1.20443C24.7512 1.2726 25.8198 1.20606 26.878 1.33492C27.7734 1.45373 28.5816 1.95913 29.162 2.63139C30.5388 4.21512 30.9647 6.38638 32.3706 7.95032C31.7666 8.01361 31.1635 7.84417 30.5621 7.92467C30.3816 7.94058 30.2221 8.03114 30.0774 8.13242C30.9922 8.01848 31.949 8.05192 32.8057 8.42066C33.9774 8.89621 34.9358 9.89566 35.2922 11.1048C35.5668 12.0471 35.4182 13.0891 34.9266 13.9366C34.3505 14.9358 33.4081 15.6934 32.3614 16.1705C32.41 16.1929 32.4595 16.2144 32.5091 16.2371C32.6991 16.1663 32.868 16.055 33.0367 15.9462C33.0603 15.9943 33.1072 16.0917 33.1309 16.1397C32.8612 16.3143 32.5665 16.4663 32.3673 16.7256C31.8968 17.293 31.7498 18.0312 31.4837 18.6982C31.1996 19.4727 30.6556 20.1167 30.0774 20.6952C28.6849 22.028 26.9695 22.9596 25.2545 23.8198C24.028 24.4128 22.7815 24.9647 21.5494 25.5463C20.4699 26.0443 19.4636 26.6799 18.3808 27.1703C18.1406 27.2684 17.9014 27.3862 17.6399 27.4128C17.2705 27.4161 16.905 27.3106 16.5345 27.3531C15.8862 27.4212 15.2831 27.6819 14.6725 27.8896C13.4076 28.3636 12.0692 28.5979 10.7364 28.7888C9.23627 28.9858 7.71086 29.0748 6.20548 28.8836C4.9757 28.719 3.68982 28.3675 2.78587 27.4768C2.30452 26.9691 1.90488 26.2984 1.96952 25.5778C1.95344 22.6837 2.73632 19.8291 2.49614 16.9301C2.39541 16.0443 2.25006 15.1286 1.7756 14.3541C1.40155 13.7026 0.867382 13.1216 0.686919 12.3779C0.513019 11.4937 0.498582 10.5332 0.907084 9.70706C1.41927 8.63523 2.58933 8.04932 3.07395 6.95898C3.33611 6.3932 3.3581 5.75925 3.32102 5.149C4.59115 3.6818 6.36691 2.61126 8.29524 2.25907C9.61163 2.00653 10.9438 2.28146 12.2641 2.34541C14.9176 2.51583 17.5041 1.61408 20.1566 1.74035C21.3772 1.8202 22.5689 2.1685 23.6726 2.68365C24.8906 3.24943 25.9895 4.02653 27.1251 4.73286C27.4886 4.9471 27.8456 5.18146 28.2423 5.33532C27.0493 4.40371 25.8238 3.49288 24.4841 2.77518C23.0771 2.02795 21.5048 1.56831 19.9046 1.52027C17.2528 1.43717 14.6574 2.19739 12.0056 2.15097C11.4048 2.13182 10.7984 2.09871 10.2131 1.95913Z" fill="#FCFCFC"/>
<path d="M16.7843 2.4606C18.9146 2.18364 21.1329 2.29251 23.1695 2.97534C24.4138 3.39078 25.5767 4.02951 26.5457 4.8721C26.8599 5.16262 27.1923 5.44513 27.4287 5.79796C25.7607 4.39652 23.7748 3.27481 21.5691 2.81435C20.2321 2.52228 18.8447 2.46861 17.479 2.58458C16.4137 2.69129 15.4025 3.08606 14.3263 3.124C12.3513 3.24613 10.3754 3.0435 8.41624 2.81928C8.22368 2.8017 8.03212 2.76716 7.83891 2.77425C7.49964 2.93371 7.24114 3.22485 6.85736 3.3038C7.11223 2.90348 7.56954 2.64164 8.06081 2.58705C9.04005 2.47972 9.98962 2.78844 10.9534 2.88621C12.9092 3.04874 14.8555 2.72923 16.7843 2.4606Z" fill="#0D0D0D"/>
<path d="M18.2889 3.56697C20.1564 3.35166 22.1077 3.50245 23.8461 4.33194C24.6522 4.73667 25.4848 5.37777 25.7142 6.37771C25.1324 5.23561 24.0246 4.57864 22.9225 4.21531C21.2386 3.66945 19.4561 3.59285 17.7143 3.68808C17.8994 3.61735 18.0938 3.58284 18.2889 3.56697Z" fill="#0D0D0D"/>
<path d="M8.31932 4.41458C9.61496 3.98194 11.0248 3.9624 12.3519 4.25424C12.5955 4.30857 12.8664 4.31023 13.0777 4.46129C13.2194 4.53913 13.0909 4.69616 13.0618 4.80051C11.8791 4.3195 10.5708 4.1542 9.31273 4.3576C8.55295 4.49773 7.7744 4.82336 7.29485 5.46934C7.08678 5.73833 6.98744 6.06728 6.85736 6.37768C6.88228 5.89601 7.05701 5.44317 7.26734 5.01815C7.54401 4.7104 7.9417 4.55272 8.31932 4.41458Z" fill="#0D0D0D"/>
<path d="M17.8765 4.12444C18.0068 3.98103 18.1543 4.10651 18.2855 4.1731C17.8531 4.44821 17.5297 4.90808 17.3627 5.43453C17.3388 5.74842 17.3809 6.07146 17.294 6.37768C17.1005 5.98512 17.1355 5.51611 17.1686 5.08624C17.4431 4.80162 17.5909 4.39516 17.8765 4.12444Z" fill="#0D0D0D"/>
<path d="M12 5.30351C12.082 5.27309 12.1642 5.24531 12.2475 5.2182C12.3336 5.44932 12.4346 5.67185 12.5721 5.859C12.5663 6.41846 12.578 6.97792 12.5663 7.53738C12.2208 7.13465 12.5474 6.49616 12.4255 5.99787C12.2933 5.75551 12.1009 5.5753 12 5.30351Z" fill="#0D0D0D"/>
<path d="M19.8922 5.95941C21.2544 5.69055 22.7179 5.72026 24.0028 6.33511C24.8222 6.72107 25.5286 7.48344 25.7139 8.45913C25.4945 8.64733 25.2429 8.81572 24.9553 8.82315C24.2969 8.8557 23.6879 8.50795 23.037 8.45983C21.2336 8.30135 19.452 8.92009 17.8862 9.85651C17.4873 9.41359 16.8123 9.25687 16.6146 8.62115C16.4624 8.22352 16.7425 7.86232 16.9536 7.56693C17.6999 6.64395 18.8137 6.20316 19.8922 5.95941Z" fill="#0D0D0D"/>
<path d="M18.2983 7.7097C18.9324 7.34137 19.6629 7.17043 20.3645 6.95749C20.2757 7.31403 20.5185 7.61618 20.5714 7.95574C20.0889 7.90337 19.6091 8.02739 19.1968 8.26163C18.7525 8.50019 18.2548 8.83601 17.7204 8.63573C17.6684 8.23487 17.9562 7.90193 18.2983 7.7097Z" fill="#FCFCFC"/>
<path d="M8.20291 7.08055C9.21895 6.82091 10.2952 7.00091 11.2698 7.35223C11.9269 7.61153 12.6131 7.94813 13.0057 8.58117C13.4168 8.45804 13.8816 8.27301 14.2859 8.52295C14.2778 8.68991 14.2836 8.88798 14.1483 9.00609C13.8259 9.33666 13.2873 9.29216 12.9983 9.67493C12.9973 10.2745 13.0009 10.8741 12.9957 11.4737C12.4936 12.0512 11.5456 12.1643 11.308 12.9823C11.7097 13.7017 12.2062 14.4759 13.0083 14.7499C13.3313 14.7757 13.5395 14.4682 13.8126 14.3441C13.9123 14.405 14.0117 14.4675 14.1104 14.5308C13.9538 14.9309 13.7615 15.3616 13.3834 15.5844C13.1358 15.7249 12.8432 15.6332 12.6189 15.49C11.8356 14.9831 11.3808 14.0938 10.6059 13.5765C10.4502 13.7522 10.2754 13.9921 10.0178 13.9673C9.88768 13.7907 9.83621 13.5698 9.74267 13.3728C9.01503 13.5595 8.42172 14.3063 7.62287 14.1711C9.38467 13.443 10.7642 12.0639 12.2525 10.8948C12.2525 10.4348 12.2525 9.97405 12.2525 9.51332C11.554 9.08137 10.7237 8.99672 9.92975 8.91609C8.89818 8.80835 7.82679 8.80567 6.85736 8.37841C6.99913 7.70689 7.57658 7.23211 8.20291 7.08055Z" fill="#0D0D0D"/>
<path d="M24.0001 7.55994C24.1809 7.50314 24.3822 7.54551 24.5202 7.78223C24.5813 7.8593 24.5717 8.00084 24.5717 8.1172C24.4412 7.91272 24.2713 7.9207 24.1101 7.87956C24.0202 7.8639 24.0185 7.67999 24.0001 7.55994Z" fill="#FCFCFC"/>
<path d="M7.99977 7.66462C8.40216 7.71396 8.80076 7.54162 9.20316 7.53815C9.39676 7.52425 9.57645 7.70909 9.71406 8.00095C9.3781 7.97941 9.04372 8.03291 8.70934 8.1024C8.45974 8.14479 8.17313 8.12325 7.99977 7.66462Z" fill="#FCFCFC"/>
<path d="M26.2856 7.54979C26.8759 7.44425 27.4044 8.05414 27.9998 7.86106C27.9012 8.73894 27.0506 8.93543 26.6443 8.40286C26.9151 8.34061 27.2783 8.52494 27.4488 8.11007C27.0405 8.0629 26.5966 7.99675 26.2856 7.54979Z" fill="#0D0D0D"/>
<path d="M3.72238 8.26524C4.27796 8.36032 4.83169 8.22806 5.37927 8.13725C5.70254 8.07474 6.05653 8.15403 6.28607 8.41757C5.29815 8.27873 4.26689 8.29617 3.32844 8.69131C2.54332 9.00288 1.82888 9.63293 1.53634 10.4913C1.269 11.2477 1.34828 12.0916 1.57721 12.847C1.63068 13.0053 1.66786 13.1915 1.8046 13.2945C2.27506 13.6751 2.91913 13.6775 3.38805 14.0558C3.52971 14.1558 3.49192 14.3394 3.48638 14.4947C3.27159 14.3463 3.0697 14.1729 2.83033 14.0716C2.37892 13.861 1.85807 13.76 1.49793 13.3744C1.15101 12.5565 1.04315 11.6057 1.24288 10.7279C1.49547 9.58917 2.3356 8.65248 3.34964 8.24649C3.47071 8.19878 3.59885 8.25833 3.72238 8.26524Z" fill="#0D0D0D"/>
<path d="M29.7143 8.21586C30.1481 8.08079 30.6122 8.12828 31.0617 8.11718C31.9023 8.1107 32.7983 8.29942 33.4328 8.86619C34.0046 9.39134 34.2263 10.1696 34.2718 10.91C34.3126 11.3325 34.2524 11.754 34.24 12.1756C34.1928 12.1241 34.1454 12.0729 34.0982 12.0223C34.1657 11.3664 34.1479 10.7031 34.0788 10.0488C33.8023 9.39689 33.2933 8.80144 32.6002 8.54334C31.6822 8.18749 30.675 8.31916 29.7143 8.21586Z" fill="#0D0D0D"/>
<path d="M26.2856 8.77119C26.5088 8.54114 26.7547 8.88399 26.8577 9.27597C26.6354 9.29161 26.439 9.06881 26.2856 8.77119Z" fill="#0D0D0D"/>
<path d="M28.5656 8.79079C29.6588 8.55938 30.8592 8.7494 31.7786 9.43362C32.6126 10.0409 33.1937 11.0721 33.1396 12.1529C33.1234 13.0744 32.6238 13.9131 31.9636 14.4949C31.7027 13.8972 32.048 13.3047 32.2386 12.7512C32.4843 12.1218 32.3484 11.4042 32.0556 10.8196C31.7667 10.2289 31.2147 9.80952 30.6086 9.63743C30.069 9.46259 29.4975 9.48569 28.9412 9.52087C28.3756 10.094 27.6201 10.3986 26.8719 10.6096C25.8901 10.8683 24.8586 10.9476 23.8564 10.7886C23.182 10.6669 22.4687 10.4134 22.037 9.8247C21.8032 9.52018 21.728 9.12462 21.7145 8.7432C22.5901 8.87735 23.0999 9.76469 23.9214 10.0358C24.6686 10.283 25.4967 10.1982 26.2176 9.89367C27.014 9.55812 27.7085 8.96564 28.5656 8.79079Z" fill="#0D0D0D"/>
<path d="M2.42835 10.0446C2.87843 9.66259 3.44929 9.46956 3.99984 9.27652C3.71699 9.86719 2.84436 9.788 2.61072 10.4188C2.42319 10.9853 2.65236 11.6062 2.44418 12.1755C2.39153 12.0997 2.33958 12.0249 2.28555 11.9502C2.29553 11.3123 2.3967 10.6808 2.42835 10.0446Z" fill="#0D0D0D"/>
<path d="M3.61258 10.0375C4.33774 9.73404 5.1773 9.86299 5.91812 10.0542C6.59426 10.2403 7.25508 10.511 7.7787 10.9372C8.07523 10.7969 8.32512 10.5855 8.64004 10.4735C8.82389 10.4246 8.99479 10.4979 9.14289 10.5855C9.12348 10.9035 8.99207 11.2457 8.64243 11.3946C7.9462 11.6879 7.14784 11.5646 6.40191 11.595C6.37569 11.2055 6.15508 10.7755 5.68628 10.6718C4.73097 10.4628 3.80289 10.8767 2.85712 10.9333C2.95891 10.5619 3.20063 10.1998 3.61258 10.0375Z" fill="#0D0D0D"/>
<path d="M28.7232 10.5854C28.8281 10.4451 29.0165 10.4581 29.1719 10.4362C29.1882 10.823 29.2375 11.2333 29.4825 11.5514C29.9818 12.2303 30.926 12.3795 31.4288 13.0558C31.021 13.4265 30.4705 13.1376 29.9991 13.1084C29.7467 13.0638 29.6757 13.3647 29.5717 13.5301C29.4128 13.7873 29.3971 14.0962 29.5151 14.3722C29.6165 14.5423 29.3824 14.6155 29.3015 14.7247C28.4318 15.5959 27.8471 16.6908 27.1159 17.6688C26.5411 18.462 25.8729 19.1951 25.0909 19.792C23.7513 20.8162 22.2627 21.6547 20.6775 22.2437C19.1848 22.8066 17.5814 22.971 16.0003 23.0968C14.1768 23.2185 12.345 23.2273 10.5215 23.0984C9.24915 22.9948 7.96781 22.851 6.745 22.4724C6.24795 22.3092 5.72915 22.1173 5.37539 21.7165C4.84955 21.1317 4.56615 20.3809 4.36401 19.6355C3.95875 18.0249 3.90629 16.3338 4.13627 14.694C4.24278 13.9188 4.62693 13.2253 4.99444 12.5464C5.17228 12.2635 5.07792 11.9132 5.18763 11.6122C5.25256 11.438 5.46942 11.5358 5.60632 11.5229C5.93385 12.2147 5.73714 13.0102 5.97543 13.7214C7.25037 14.9785 9.03772 15.5902 10.7934 15.8098C13.3318 16.105 15.8938 15.7166 18.3602 15.1239C21.9016 14.2454 25.3071 12.9016 28.6087 11.373C28.616 11.1101 28.5629 10.8148 28.7232 10.5854Z" fill="#0D0D0D"/>
<path d="M17.1427 12.2455C17.1649 11.7584 17.6369 11.5503 18.0134 11.604C18.4884 11.666 19.0057 11.806 19.351 12.203C19.4615 12.5122 19.423 12.8654 19.417 13.1925C19.3717 13.6691 19.2288 14.2425 18.7997 14.4479C18.5968 14.5592 18.3785 14.4455 18.1794 14.3814C18.1794 14.232 18.1512 14.0732 18.2134 13.9342C18.3302 13.6502 18.646 13.5406 18.7361 13.2374C18.8066 13.0259 18.7421 12.804 18.7076 12.5932C18.2035 12.375 17.6354 12.5062 17.1427 12.2455Z" fill="#0D0D0D"/>
<path d="M19.4875 12.1619C19.4189 11.9698 19.3606 11.6839 19.6097 11.5957C19.6754 11.6139 19.8049 11.6484 19.8699 11.6669C19.7826 11.7305 19.6952 11.7931 19.6075 11.856C19.6248 12.0872 19.8013 12.2785 20.0343 12.3268C20.887 12.5317 21.7746 12.2586 22.6314 12.4093C22.8193 12.4261 22.8794 12.5925 22.8494 12.7553C22.0594 12.3293 21.1369 12.6689 20.2897 12.5907C19.9833 12.5715 19.5965 12.4805 19.4875 12.1619Z" fill="#0D0D0D"/>
<path d="M2.28555 12.1757C2.32466 12.1889 2.40412 12.2159 2.44385 12.2296C2.65429 12.4614 3.1152 12.5715 3.42838 12.7555C3.15183 12.7374 2.85541 12.7099 2.64467 12.6028C2.41529 12.4962 2.33739 12.3295 2.28555 12.1757Z" fill="#0D0D0D"/>
<path d="M25.7827 13.6429C26.9428 13.2499 27.8724 12.2298 29.1424 12.1757C29.1622 12.8769 28.8429 13.5599 28.3243 14.0137C27.6019 14.6573 26.648 14.9424 25.7148 15.0746C25.9432 14.6227 25.7108 14.1201 25.7827 13.6429Z" fill="#FCFCFC"/>
<path d="M34.1151 12.1757C34.1721 12.2405 34.2287 12.3064 34.2854 12.3712C34.1781 12.987 34.0474 13.6 33.8679 14.2035C33.2533 14.5146 32.6806 14.9253 31.9669 15.056C31.7843 15.1043 31.6029 15.0483 31.4283 15.005C32.1138 14.9098 32.8113 14.6832 33.2644 14.2147C33.8161 13.6466 34.0553 12.9005 34.1151 12.1757Z" fill="#0D0D0D"/>
<path d="M15.5407 12.8653C16.252 12.6686 17.0114 12.7545 17.7065 12.9772C17.7302 13.3002 17.7058 13.633 17.5354 13.9151C16.7701 13.2153 15.7138 13.9768 14.8572 13.5641C14.901 13.2022 15.2098 12.9496 15.5407 12.8653Z" fill="#0D0D0D"/>
<path d="M20.0006 15.1952C21.725 14.8021 23.4017 14.2528 25.1433 13.915C25.1326 14.5814 24.7711 15.2434 24.1245 15.5991C22.9896 16.2391 21.5942 16.3071 20.3922 16.8139C20.2405 16.2784 20.1633 15.7282 20.0006 15.1952Z" fill="#FCFCFC"/>
<path d="M5.1442 16.555C5.15912 15.7969 5.63954 15.1049 6.15366 14.4949C6.46511 15.4548 6.16713 16.4598 5.8552 17.3939C5.44988 17.2454 5.11724 16.9374 5.1442 16.555Z" fill="#FCFCFC"/>
<path d="M26.612 16.0729C27.0361 15.8312 27.5144 15.6891 28.0004 15.6544C27.1798 16.323 26.9831 17.6115 25.8967 17.9736C25.7721 17.6987 25.6674 17.396 25.7371 17.0909C25.8372 16.6306 26.2176 16.2954 26.612 16.0729Z" fill="#FCFCFC"/>
<path d="M7.0727 17.7368C6.9779 17.0633 6.55657 16.1843 7.23989 15.6544C7.5989 15.9811 8.0807 16.1429 8.56585 16.2495C8.61922 16.6663 8.28409 16.9937 8.15011 17.3684C8.07286 17.5783 8.1893 17.7852 8.28036 17.9736C7.89037 17.8498 7.5015 17.6483 7.0727 17.7368Z" fill="#FCFCFC"/>
<path d="M16.3376 16.344C17.4323 16.0847 18.529 15.8298 19.6402 15.6544C19.7979 16.2147 19.8515 16.7997 20.0003 17.3616C19.1474 17.4582 18.3389 17.7866 17.4917 17.9132C16.9986 17.992 16.4975 17.9843 16.0019 17.9433C16.007 17.4455 15.993 16.9487 16.006 16.4516C16.0987 16.3774 16.2285 16.3797 16.3376 16.344Z" fill="#FCFCFC"/>
<path d="M8.57137 17.6042C8.98083 17.2356 8.73822 16.6283 9.09792 16.2342C9.99077 16.6954 11.0622 16.4251 12 16.7458C11.6711 17.0909 11.9345 17.5651 11.8818 17.9736C10.772 17.9712 9.61789 18.0032 8.57137 17.6042Z" fill="#FCFCFC"/>
<path d="M12.7899 16.4896C13.4898 16.6192 14.1596 16.2361 14.855 16.2342C14.8587 16.8128 14.8559 17.3926 14.8573 17.9713C14.1013 17.9731 13.3462 17.9758 12.5905 17.9701C12.4913 17.4397 12.8165 17.0125 12.7899 16.4896Z" fill="#FCFCFC"/>
<path d="M21.1634 18.2978C22.3777 17.9823 23.5206 17.425 24.6264 16.814C24.5256 17.4734 24.6673 18.1882 25.1429 18.6491C24.024 19.3416 23.0583 20.2981 21.8743 20.8725C21.8597 20.1187 21.2261 19.6056 21.1564 18.8706C21.1292 18.6796 21.1494 18.4879 21.1634 18.2978Z" fill="#FCFCFC"/>
<path d="M16.6025 19.6166C17.9068 19.4605 19.1377 19.0007 20.3551 18.5532C20.3222 18.9671 20.313 19.4024 20.5152 19.783C20.7489 20.2422 21.0746 20.6722 21.1426 21.1918C19.9992 21.4577 18.9014 21.9147 17.7197 22.0173C17.3588 22.0578 16.9953 22.0093 16.6436 21.9346C16.7883 21.1648 16.4747 20.3912 16.6025 19.6166Z" fill="#FCFCFC"/>
<path d="M5.18806 19.599C5.12892 19.4535 5.13744 19.2884 5.15849 19.1332C5.29707 19.5389 5.53688 19.8756 5.67495 20.2816C5.74812 20.4728 5.71028 20.6877 5.64463 20.8726C5.5672 20.4089 5.34142 20.0229 5.18806 19.599Z" fill="#FCFCFC"/>
<path d="M6.76805 19.7131C7.40424 20.3254 7.73815 21.189 8.00001 22.0323C7.50512 21.8985 6.98421 21.838 6.52166 21.6003C6.38317 21.5388 6.33994 21.3803 6.28581 21.2501C6.36138 21.3198 6.43519 21.3906 6.50901 21.4636C6.66753 21.4171 6.85276 21.3991 6.96523 21.2557C7.14695 20.7105 6.43449 20.234 6.76805 19.7131Z" fill="#FCFCFC"/>
<path d="M12.5716 20.1308C13.6749 20.2292 14.7824 20.041 15.8366 19.7131C15.892 20.6081 15.6307 21.5585 16.0001 22.4082C15.0245 22.7408 13.9835 22.5591 12.9766 22.5888C12.8767 21.7633 12.6808 20.9544 12.5716 20.1308Z" fill="#FCFCFC"/>
<path d="M7.99977 20.2944C8.41788 20.2677 8.7645 20.563 9.18889 20.5019C9.16735 21.0624 9.60519 21.5004 9.71406 22.0321C9.31808 21.9792 8.89789 21.963 8.55336 21.7541C8.59852 21.623 8.67807 21.4806 8.60539 21.3437C8.46513 20.9652 8.13077 20.6782 7.99977 20.2944Z" fill="#FCFCFC"/>
<path d="M10.2861 20.4085C10.8158 20.2683 11.4315 20.187 11.8954 20.5791C12.4243 21.0641 12.493 21.8927 12.5718 22.6047C12.0426 22.6295 11.5067 22.5967 11.0013 22.402C10.8593 21.6955 10.4767 21.0951 10.2861 20.4085Z" fill="#FCFCFC"/>
<path d="M23.4435 22.4225C24.3495 21.9901 25.2817 21.5489 26.2856 21.4522C24.6654 22.0566 23.1665 22.9465 21.6095 23.6988C19.5973 24.6772 17.4237 25.4971 15.1717 25.3958C14.3412 25.2937 13.5136 25.4728 12.6815 25.464C11.0831 25.4444 9.46551 25.6508 7.88198 25.3258C7.22646 25.1779 6.54309 24.9157 6.11601 24.3468C5.89503 24.0735 5.78 23.7303 5.71422 23.3843C6.29002 24.3927 7.38848 24.8752 8.44093 25.1242C9.74903 25.4147 11.1006 25.511 12.4343 25.389C14.2226 25.3093 16.0342 25.3258 17.7856 24.8856C19.7846 24.3789 21.5994 23.3394 23.4435 22.4225Z" fill="#0D0D0D"/>
<path d="M25.199 22.5974C26.097 22.1395 26.9751 21.532 28.0002 21.4522C26.8868 22.2279 25.6736 22.8397 24.4537 23.4151C19.6512 25.6197 14.3844 26.6639 9.13962 26.6699C8.09572 26.6758 7.03166 26.6308 6.02809 26.3054C5.23189 26.0475 4.48785 25.5297 4.06766 24.7705C4.05518 24.4501 3.93166 24.0948 4.05358 23.7916C4.09454 23.7671 4.17647 23.7187 4.21743 23.6939C4.22575 24.0839 4.21999 24.4746 4.22159 24.8646C4.67378 25.3367 5.24469 25.6697 5.84632 25.8935C6.76957 26.2451 7.75266 26.3858 8.72904 26.4596C10.2635 26.5553 11.8022 26.457 13.3293 26.2901C17.4629 25.8409 21.492 24.5279 25.199 22.5974Z" fill="#0D0D0D"/>
<path d="M10.2861 23.8841C11.4305 23.9082 12.5756 23.8396 13.7181 23.9355C14.4735 23.9394 15.2874 23.409 16.0004 24.235C14.7549 24.1017 13.5108 24.345 12.265 24.3513C11.6046 24.3076 10.9256 24.3489 10.2861 23.8841Z" fill="#0D0D0D"/>
</svg>
